<?xml version="1.0" encoding="UTF-8"?>
    <svg width="100px" height="100px" viewBox="0 0 100 100" xmlns="http://www.w3.org/2000/svg" fill="#FFFFFF" data-type="shape">
        <g>
            <path d="M100 100H0l17.575-54.88h36.81a284.395 284.395 0 0 0 2.734 5.708l.075.151H21.851L8.029 94.141h8.793c.244-.643.578-1.494 1-2.496l4.14 1.744c-.11.262-.214.513-.312.752h70.32L81.334 60.926a408.888 408.888 0 0 0 3.797-7.355L100 100zM71.808 68.191S51.194 31.999 51.194 20.614 60.423 0 71.808 0c11.386 0 20.614 9.229 20.614 20.614S71.808 68.191 71.808 68.191zm0-35.314c6.772 0 12.264-5.489 12.264-12.263 0-6.772-5.491-12.263-12.264-12.263s-12.263 5.49-12.263 12.263c0 6.774 5.49 12.263 12.263 12.263zm-7.701 45.878l1.918 4.063c1.424-.672 2.701-1.691 3.797-3.031l-3.477-2.845c-.669.818-1.422 1.428-2.238 1.813zm-7.386 4.117c1.563.554 3.072.857 4.486.904l.148-4.49c-.953-.031-2.009-.249-3.136-.648l-1.498 4.234zm16.746-11.063l-4.372-1.029a20.006 20.006 0 0 1-1.085 3.34l4.123 1.783a24.558 24.558 0 0 0 1.334-4.094zM19.479 87.971l4.046 1.951a67.579 67.579 0 0 1 1.738-3.364l-3.93-2.177a73.223 73.223 0 0 0-1.854 3.59zm9.863-7.656l-3.53-2.778a45.344 45.344 0 0 0-2.387 3.353l3.769 2.444a40.37 40.37 0 0 1 2.148-3.019zm23.482.744l2.222-3.904a33.757 33.757 0 0 1-3.065-1.993l-2.637 3.637a38.242 38.242 0 0 0 3.48 2.26zm-18.395-5.65l-2.474-3.749c-1.128.744-2.257 1.667-3.354 2.742l3.145 3.208a18.313 18.313 0 0 1 2.683-2.201zm11.761.916l2.8-3.513c-1.231-.981-2.492-1.775-3.749-2.359l-1.894 4.074c.934.434 1.89 1.039 2.843 1.798zm-8.849-2.317a7.948 7.948 0 0 1 3.009-.317l.398-4.475a12.445 12.445 0 0 0-4.696.489l1.289 4.303z"/>
        </g>
    </svg>