<?xml version="1.0" encoding="UTF-8"?>
    <svg width="100px" height="100px" viewBox="0 0 50 50" xmlns="http://www.w3.org/2000/svg" fill="#FFFFFF" data-type="shape">
        <g>
            <path d="M4 46h45v3H1V1h3v45z"/>
            <path d="M14.715 26.672L3.547 36.445l-2.469-2.819 13.53-11.838 15.126 12.101 14.049-19.387 3.033 2.197L30.461 39.27 14.715 26.672z"/>
            <path d="M18.862 25.043a4.013 4.013 0 1 1-8.026 0 4.013 4.013 0 0 1 8.026 0z"/>
            <path d="M34.035 35.953a4.014 4.014 0 1 1-8.028 0 4.014 4.014 0 0 1 8.028 0z"/>
            <path d="M48.815 15.823a4.014 4.014 0 1 1-8.028 0 4.014 4.014 0 0 1 8.028 0z"/>
        </g>
    </svg> 