<?xml version="1.0" encoding="UTF-8"?>
    <svg width="100px" height="100px" viewBox="0 0 100 100" xmlns="http://www.w3.org/2000/svg" fill="#FFFFFF" data-type="shape">
        <g>
            <path d="M94.7 20A15.91 15.91 0 0 0 90 10a15.91 15.91 0 0 0-10-4.7 12.35 12.35 0 0 0-9.87 3.49L11.89 67a7.65 7.65 0 0 0-2 3.69l-5 21.38a2.5 2.5 0 0 0 2.44 3.06 2.53 2.53 0 0 0 .56-.06l21.38-5a7.65 7.65 0 0 0 3.69-2l58.25-58.19A12.38 12.38 0 0 0 94.7 20zM77.41 36.61a22.64 22.64 0 0 0-14-14l3.42-3.42a17.67 17.67 0 0 1 14 14zM32.73 81.29A22.29 22.29 0 0 0 29 74.51l41.12-41.1a17.68 17.68 0 0 1 3.22 7.27zm26.59-54.63a17.71 17.71 0 0 1 7.28 3.21L25.49 71a22.3 22.3 0 0 0-6.78-3.71zM11.77 84.6a13 13 0 0 1 3.63 3.62l-4.72 1.09zm16.39.66L20.5 87a17.94 17.94 0 0 0-7.5-7.49l1.78-7.67a2.78 2.78 0 0 1 .16-.42 17.32 17.32 0 0 1 13.64 13.69 2.78 2.78 0 0 1-.42.16zm59.51-58.91l-2.76 2.76a22.64 22.64 0 0 0-14-14l2.76-2.76a7.34 7.34 0 0 1 5.28-2.07 10.82 10.82 0 0 1 7.52 3.3c3.84 3.84 4.39 9.58 1.2 12.77z"/>
            <path d="M24.76 45.87a2.5 2.5 0 0 0 1.77-4.27l-3.37-3.37 5.14-5.14a2.5 2.5 0 1 0-3.54-3.54l-5.14 5.14-3.88-3.88 5.14-5.14a2.5 2.5 0 0 0-3.54-3.54l-5.14 5.14-4.43-4.43a.26.26 0 0 1 0-.36L22.48 7.77a.26.26 0 0 1 .36 0L41.6 26.53A2.5 2.5 0 0 0 45.13 23L26.38 4.24a5.26 5.26 0 0 0-7.43 0L4.24 18.95a5.26 5.26 0 0 0 0 7.43L23 45.13a2.49 2.49 0 0 0 1.76.74z"/>
            <path d="M77 54.87a2.5 2.5 0 0 0-3.54 3.54l18.77 18.75a.26.26 0 0 1 0 .36L77.52 92.23a.26.26 0 0 1-.36 0l-4.44-4.44 5.14-5.14a2.5 2.5 0 0 0-3.54-3.54l-5.14 5.14-3.88-3.88 5.14-5.14a2.5 2.5 0 0 0-3.54-3.54l-5.14 5.14-3.36-3.36A2.5 2.5 0 0 0 54.87 77l18.75 18.76a5.26 5.26 0 0 0 7.43 0l14.71-14.71a5.26 5.26 0 0 0 0-7.43z"/>
        </g>
    </svg> 