<?xml version="1.0" encoding="UTF-8"?>
    <svg width="100px" height="100px" viewBox="0 0 100 100" xmlns="http://www.w3.org/2000/svg" fill="#FFFFFF" data-type="shape">
        <g>
            <path d="M94.188 71.443l-13.012-.767c.047.518.02 1.033-.068 1.542l13.08-.775z"/>
            <path d="M18.131 70.705L5.5 71.443l12.81.765a6.724 6.724 0 0 1-.179-1.503z"/>
            <path d="M49.691 13.625c6.451 0 11.682 5.229 11.682 11.688C61.373 31.769 57.26 37 49.691 37 43.236 37 38 31.769 38 25.312c0-6.458 5.236-11.687 11.691-11.687z"/>
            <path d="M79.791 69.208L73.8 49.743c-1.601-4.398-5.635-9.576-11.691-9.576H37.118c-6.059 0-10.093 5.177-11.694 9.576l-5.989 19.465a5.085 5.085 0 0 0-.133 2.284 4.9 4.9 0 0 0 3.124 4.018l19.555 7.453c.575.22 1.166.323 1.747.323.041 0 .08-.008.121-.009v2.304h8.84a4.888 4.888 0 0 0 4.736 3.63 4.883 4.883 0 0 0 2.964-.999l17.618-13.38a4.864 4.864 0 0 0 1.76-2.673 5.05 5.05 0 0 0 .024-2.951zM42.514 46.052c1.792-1.151 3.991-1.729 6.6-1.729 3.43 0 6.278.819 8.548 2.458 2.268 1.64 3.401 4.067 3.401 7.283 0 1.974-.491 3.635-1.475 4.984-.575.819-1.68 1.867-3.315 3.141l-1.611 1.252c-.878.684-1.459 1.479-1.747 2.39-.183.577-.28 1.473-.296 2.685h-6.168c.092-2.563.333-4.333.726-5.313.394-.978 1.408-2.104 3.041-3.38l1.657-1.297a5.79 5.79 0 0 0 1.316-1.343 4.59 4.59 0 0 0 .907-2.754 5.32 5.32 0 0 0-1.011-3.152c-.673-.948-1.903-1.423-3.69-1.423-1.756 0-3.002.585-3.735 1.753-.734 1.169-1.101 2.383-1.101 3.642h-6.578c.184-4.326 1.693-7.391 4.531-9.197zm10.414 36.334v.742l-6.627.001v-6.857h6.627v6.114zm2.453-2.693v-5.875h-9.852c-.018-.007-.035-.017-.053-.023l-6.787-2.587h27.866l-11.174 8.485z"/>
        </g>
    </svg>